<svg xmlns="http://www.w3.org/2000/svg" version="1.1" xmlns:xlink="http://www.w3.org/1999/xlink" xmlns:svgjs="http://svgjs.com/svgjs" width="2000" height="1000" preserveAspectRatio="none" viewBox="0 0 2000 1000"><g mask="url(&quot;#SvgjsMask1091&quot;)" fill="none"><rect width="2000" height="1000" x="0" y="0" fill="rgba(24, 106, 59, 1)"></rect><path d="M0,610.059C109.786,578.475,214.099,544.4,311.495,484.696C410.827,423.805,509.111,359.594,570.316,260.455C636.54,153.185,669.606,29.702,670.217,-96.363C670.897,-236.665,655.775,-383.363,573.989,-497.364C488.967,-615.875,357.698,-702.443,214.721,-731.274C76.714,-759.103,-62.714,-708.895,-191.355,-651.695C-307.581,-600.015,-409.938,-522.933,-484.914,-420.181C-555.883,-322.921,-580.881,-205.024,-603.56,-86.779C-627.284,36.912,-643.364,159.329,-619.794,283.05C-590.926,434.58,-589.229,632.587,-452.799,704.569C-313.611,778.006,-151.239,653.568,0,610.059" fill="#135630"></path><path d="M2000 1741.8310000000001C2162.502 1758.243 2351.147 1847.27 2480.035 1746.949 2610.997 1645.0140000000001 2559.706 1435.134 2600.652 1274.308 2633.071 1146.974 2699.462 1031.318 2695.674 899.977 2691.575 757.859 2674.129 603.929 2578.29 498.909 2483.051 394.54600000000005 2323.96 396.919 2191.569 347.577 2046.793 293.62 1914.397 161.12199999999996 1763.726 195.32500000000005 1612.935 229.55499999999995 1547.849 403.70000000000005 1443.135 517.4739999999999 1334.5639999999999 635.4390000000001 1178.605 721.053 1137.29 875.961 1094.548 1036.219 1137.699 1212.143 1219.362 1356.5059999999999 1297.682 1494.96 1435.839 1585.49 1578.48 1655.8980000000001 1709.723 1720.6799999999998 1854.38 1727.124 2000 1741.8310000000001" fill="#1d7e46"></path></g><defs><mask id="SvgjsMask1091"><rect width="2000" height="1000" fill="#ffffff"></rect></mask></defs></svg>